REM DIRINDEX 1\2,1\3\5,1\3\6,1\4\7,1\4\8
REM DIRNAME folder01,folder02,folder03,folder04,folder05,folder06,folder07,folder08
TITLE ""
FILE "" MP3
  TRACK 01 AUDIO
    TITLE "0:"
    INDEX 01 00:00:00
  TRACK 02 AUDIO
    TITLE "7:cjc139_2757"
    INDEX 01 00:00:17
  TRACK 03 AUDIO
    TITLE "0:"
    INDEX 01 00:02:49
  TRACK 04 AUDIO
    TITLE "8:cjc139_2758"
    INDEX 01 00:05:32
  TRACK 05 AUDIO
    TITLE "0:"
    INDEX 01 00:08:03
  TRACK 06 AUDIO
    TITLE "7:cjc139_2759"
    INDEX 01 00:10:63
  TRACK 07 AUDIO
    TITLE "0:"
    INDEX 01 00:12:61
  TRACK 08 AUDIO
    TITLE "8:cjc139_2760"
    INDEX 01 00:15:48
  TRACK 09 AUDIO
    TITLE "0:"
    INDEX 01 00:17:74
  TRACK 10 AUDIO
    TITLE "7:cjc139_2761"
    INDEX 01 00:20:57
  TRACK 11 AUDIO
    TITLE "0:"
    INDEX 01 00:23:01
  TRACK 12 AUDIO
    TITLE "8:cjc139_2762"
    INDEX 01 00:25:60
  TRACK 13 AUDIO
    TITLE "0:"
    INDEX 01 00:27:73
  TRACK 14 AUDIO
    TITLE "7:cjc139_2763"
    INDEX 01 00:30:59
  TRACK 15 AUDIO
    TITLE "0:"
    INDEX 01 00:33:15
  TRACK 16 AUDIO
    TITLE "8:cjc139_2764"
    INDEX 01 00:35:74
  TRACK 17 AUDIO
    TITLE "0:"
    INDEX 01 00:38:16
  TRACK 18 AUDIO
    TITLE "7:cjc139_2765"
    INDEX 01 00:41:00
  TRACK 19 AUDIO
    TITLE "0:"
    INDEX 01 00:43:54
  TRACK 20 AUDIO
    TITLE "8:cjc139_2766"
    INDEX 01 00:46:37
  TRACK 21 AUDIO
    TITLE "0:"
    INDEX 01 00:48:65
  TRACK 22 AUDIO
    TITLE "7:cjc139_2767"
    INDEX 01 00:51:48
  TRACK 23 AUDIO
    TITLE "0:"
    INDEX 01 00:54:21
  TRACK 24 AUDIO
    TITLE "8:cjc139_2768"
    INDEX 01 00:57:07
  TRACK 25 AUDIO
    TITLE "0:"
    INDEX 01 00:59:16
  TRACK 26 AUDIO
    TITLE "7:cjc139_2769"
    INDEX 01 01:02:01
  TRACK 27 AUDIO
    TITLE "0:"
    INDEX 01 01:04:52
  TRACK 28 AUDIO
    TITLE "8:cjc139_2770"
    INDEX 01 01:07:33
  TRACK 29 AUDIO
    TITLE "0:"
    INDEX 01 01:09:38
  TRACK 30 AUDIO
    TITLE "7:cjc139_2771"
    INDEX 01 01:12:23
  TRACK 31 AUDIO
    TITLE "0:"
    INDEX 01 01:16:05
  TRACK 32 AUDIO
    TITLE "8:cjc139_2772"
    INDEX 01 01:18:64
  TRACK 33 AUDIO
    TITLE "0:"
    INDEX 01 01:21:74
  TRACK 34 AUDIO
    TITLE "7:cjc139_2773"
    INDEX 01 01:24:57
  TRACK 35 AUDIO
    TITLE "0:"
    INDEX 01 01:27:65
  TRACK 36 AUDIO
    TITLE "8:cjc139_2774"
    INDEX 01 01:30:52
  TRACK 37 AUDIO
    TITLE "0:"
    INDEX 01 01:33:09
  TRACK 38 AUDIO
    TITLE "7:cjc139_2775"
    INDEX 01 01:35:69
  TRACK 39 AUDIO
    TITLE "0:"
    INDEX 01 01:39:10
  TRACK 40 AUDIO
    TITLE "8:cjc139_2776"
    INDEX 01 01:41:69
  TRACK 41 AUDIO
    TITLE "0:"
    INDEX 01 01:44:54
  TRACK 42 AUDIO
    TITLE "7:cjc139_2777"
    INDEX 01 01:47:40
  TRACK 43 AUDIO
    TITLE "0:"
    INDEX 01 01:49:37
  TRACK 44 AUDIO
    TITLE "8:cjc139_2778"
    INDEX 01 01:52:20
  TRACK 45 AUDIO
    TITLE "0:"
    INDEX 01 01:54:33
  TRACK 46 AUDIO
    TITLE "7:cjc139_2779"
    INDEX 01 01:57:19
  TRACK 47 AUDIO
    TITLE "0:"
    INDEX 01 01:59:03
  TRACK 48 AUDIO
    TITLE "8:cjc139_2780"
    INDEX 01 02:01:62
  TRACK 49 AUDIO
    TITLE "0:"
    INDEX 01 02:03:53
  TRACK 50 AUDIO
    TITLE "7:cjc139_2781"
    INDEX 01 02:06:38
  TRACK 51 AUDIO
    TITLE "0:"
    INDEX 01 02:08:23
  TRACK 52 AUDIO
    TITLE "8:cjc139_2782"
    INDEX 01 02:11:08
  TRACK 53 AUDIO
    TITLE "0:"
    INDEX 01 02:12:62
  TRACK 54 AUDIO
    TITLE "7:cjc139_2783"
    INDEX 01 02:15:51
  TRACK 55 AUDIO
    TITLE "0:"
    INDEX 01 02:19:46
  TRACK 56 AUDIO
    TITLE "8:cjc139_2784"
    INDEX 01 02:22:29
  TRACK 57 AUDIO
    TITLE "0:"
    INDEX 01 02:25:18
  TRACK 58 AUDIO
    TITLE "7:cjc139_2785"
    INDEX 01 02:28:02
  TRACK 59 AUDIO
    TITLE "0:"
    INDEX 01 02:32:00
  TRACK 60 AUDIO
    TITLE "8:cjc139_2786"
    INDEX 01 02:34:60
  TRACK 61 AUDIO
    TITLE "0:"
    INDEX 01 02:38:24
  TRACK 62 AUDIO
    TITLE "7:cjc139_2787"
    INDEX 01 02:41:11
  TRACK 63 AUDIO
    TITLE "0:"
    INDEX 01 02:45:28
  TRACK 64 AUDIO
    TITLE "8:cjc139_2788"
    INDEX 01 02:48:13
  TRACK 65 AUDIO
    TITLE "0:"
    INDEX 01 02:52:03
  TRACK 66 AUDIO
    TITLE "7:cjc139_2789"
    INDEX 01 02:54:64
  TRACK 67 AUDIO
    TITLE "0:"
    INDEX 01 02:58:35
  TRACK 68 AUDIO
    TITLE "8:cjc139_2790"
    INDEX 01 03:01:19
  TRACK 69 AUDIO
    TITLE "0:"
    INDEX 01 03:04:53
  TRACK 70 AUDIO
    TITLE "7:cjc139_2791"
    INDEX 01 03:07:36
  TRACK 71 AUDIO
    TITLE "0:"
    INDEX 01 03:11:59
  TRACK 72 AUDIO
    TITLE "8:cjc139_2792"
    INDEX 01 03:14:43
  TRACK 73 AUDIO
    TITLE "0:"
    INDEX 01 03:18:35
  TRACK 74 AUDIO
    TITLE "7:cjc139_2793"
    INDEX 01 03:21:18
  TRACK 75 AUDIO
    TITLE "0:"
    INDEX 01 03:24:36
  TRACK 76 AUDIO
    TITLE "8:cjc139_2794"
    INDEX 01 03:27:21
  TRACK 77 AUDIO
    TITLE "0:"
    INDEX 01 03:30:52
  TRACK 78 AUDIO
    TITLE "7:cjc139_2795"
    INDEX 01 03:33:37
  TRACK 79 AUDIO
    TITLE "0:"
    INDEX 01 03:36:37
  TRACK 80 AUDIO
    TITLE "8:cjc139_2796"
    INDEX 01 03:39:22
  TRACK 81 AUDIO
    TITLE "0:"
    INDEX 01 03:42:20
  TRACK 82 AUDIO
    TITLE "7:cjc139_2797"
    INDEX 01 03:45:05
  TRACK 83 AUDIO
    TITLE "0:"
    INDEX 01 03:48:07
  TRACK 84 AUDIO
    TITLE "8:cjc139_2798"
    INDEX 01 03:50:67
  TRACK 85 AUDIO
    TITLE "0:"
    INDEX 01 03:53:20
  TRACK 86 AUDIO
    TITLE "7:cjc139_2799"
    INDEX 01 03:56:05
  TRACK 87 AUDIO
    TITLE "0:"
    INDEX 01 04:00:00
  TRACK 88 AUDIO
    TITLE "8:cjc139_2800"
    INDEX 01 04:02:62
  TRACK 89 AUDIO
    TITLE "0:"
    INDEX 01 04:06:42
  TRACK 90 AUDIO
    TITLE "7:cjc139_2801"
    INDEX 01 04:09:27
  TRACK 91 AUDIO
    TITLE "0:"
    INDEX 01 04:12:45
  TRACK 92 AUDIO
    TITLE "8:cjc139_2802"
    INDEX 01 04:15:31
  TRACK 93 AUDIO
    TITLE "0:"
    INDEX 01 04:18:55
  TRACK 94 AUDIO
    TITLE "7:cjc139_2803"
    INDEX 01 04:21:40
  TRACK 95 AUDIO
    TITLE "0:"
    INDEX 01 04:25:02
  TRACK 96 AUDIO
    TITLE "8:cjc139_2804"
    INDEX 01 04:27:62
  TRACK 97 AUDIO
    TITLE "0:"
    INDEX 01 04:31:23
  TRACK 98 AUDIO
    TITLE "7:cjc139_2805"
    INDEX 01 04:34:11
  TRACK 99 AUDIO
    TITLE "0:"
    INDEX 01 04:37:27
  TRACK 100 AUDIO
    TITLE "8:cjc139_2806"
    INDEX 01 04:40:12
  TRACK 101 AUDIO
    TITLE "0:"
    INDEX 01 04:43:53
  TRACK 102 AUDIO
    TITLE "7:cjc139_2807"
    INDEX 01 04:46:40
  TRACK 103 AUDIO
    TITLE "0:"
    INDEX 01 04:50:45
  TRACK 104 AUDIO
    TITLE "8:cjc139_2808"
    INDEX 01 04:53:32
  TRACK 105 AUDIO
    TITLE "0:"
    INDEX 01 04:56:28
